<svg version="1.1" id="Layer_1" xmlns="http://www.w3.org/2000/svg" xmlns:xlink="http://www.w3.org/1999/xlink" x="0px" y="0px"
	 width="100%" viewBox="0 0 512 512" enable-background="new 0 0 512 512" xml:space="preserve">
<path fill="#000000" opacity="1.000000" stroke="none" 
	d="
M513.000000,291.000000 
	C513.000000,364.966339 513.000000,438.932709 513.000000,512.949524 
	C342.444611,512.949524 171.889191,512.949524 1.000000,512.949524 
	C1.000000,438.645569 1.000000,364.290619 1.336232,289.133392 
	C2.110372,289.166962 2.762457,289.956726 2.953874,290.845673 
	C5.568726,302.989471 7.497599,315.319824 10.814428,327.265717 
	C18.042036,353.296722 29.802090,377.354584 45.807583,399.078552 
	C54.110115,410.347473 63.886314,420.530640 73.134415,431.499023 
	C82.699348,439.816498 92.126633,447.839233 101.926254,455.919037 
	C119.839272,469.232635 139.214142,479.137787 159.659821,486.979126 
	C180.960449,495.148315 203.131317,500.152679 225.798752,501.743835 
	C240.281799,502.760498 254.974350,501.886444 269.500610,500.847839 
	C281.138458,500.015747 292.923309,498.663086 304.195465,495.787445 
	C335.266174,487.860992 364.230957,475.009399 390.618225,455.904999 
	C401.565857,455.983612 412.060211,456.054169 422.553589,455.979797 
	C429.344269,455.931702 434.876160,452.810638 435.907318,448.088257 
	C439.284454,432.622681 449.371796,423.782623 463.836700,419.044525 
	C470.295258,416.928955 471.992218,414.578979 471.999481,408.048676 
	C472.024780,385.395569 472.048004,362.742493 472.477478,340.051300 
	C481.573425,338.816559 486.167572,335.733551 486.960968,330.440277 
	C487.397125,327.530334 487.608459,324.587372 488.004181,321.670563 
	C490.081665,306.357880 500.375549,297.725800 513.000000,291.000000 
z"/>
<path fill="#FEDD41" opacity="1.000000" stroke="none" 
	d="
M72.996765,431.204285 
	C63.886314,420.530640 54.110115,410.347473 45.807583,399.078552 
	C29.802090,377.354584 18.042036,353.296722 10.814428,327.265717 
	C7.497599,315.319824 5.568726,302.989471 2.953874,290.845673 
	C2.762457,289.956726 2.110372,289.166962 1.336232,288.665527 
	C1.000000,267.979095 1.000000,246.958206 1.336211,225.803177 
	C2.090986,225.168076 2.773106,224.721451 2.889260,224.158127 
	C5.293591,212.498032 7.088567,200.678986 10.157191,189.199615 
	C12.654166,179.858719 16.661604,170.921570 20.462627,161.875473 
	C26.410915,161.963684 31.895803,161.994690 37.380707,161.997940 
	C84.918167,162.026016 132.455627,162.049088 179.808594,162.350479 
	C169.874527,174.460770 169.540436,183.096146 178.293701,195.995316 
	C178.646805,196.515686 178.711975,197.231430 178.556366,197.903351 
	C176.806488,198.235260 175.411560,198.519974 173.676666,198.565674 
	C172.687531,198.201447 172.038406,197.966782 171.389236,197.966660 
	C126.291779,197.958099 81.194260,197.946289 36.097012,198.048187 
	C34.046970,198.052826 31.787964,198.719513 29.987719,199.724991 
	C22.879189,203.695251 19.888428,211.023300 21.933060,218.705215 
	C23.973644,226.371933 30.186880,231.009476 38.533440,231.011322 
	C82.299858,231.021027 126.066269,231.019669 169.832672,230.994873 
	C171.650146,230.993851 173.467438,230.720612 175.656067,230.607315 
	C177.017471,230.761215 178.007645,230.881989 178.849182,231.303223 
	C176.124222,235.781540 172.861084,239.694016 171.121780,244.195282 
	C167.989975,252.300278 172.158752,259.303101 175.605743,266.177124 
	C172.879135,267.257294 170.227173,267.915863 168.250946,269.446747 
	C164.458008,272.384857 161.048431,275.817871 157.451294,278.554932 
	C157.414200,277.064514 157.417297,276.064514 157.395264,275.065033 
	C157.255722,268.735016 154.891937,265.723572 150.156860,265.833801 
	C145.522156,265.941681 143.249390,269.054474 143.212173,275.445496 
	C143.180161,280.944153 143.202515,286.443115 143.204559,291.941956 
	C143.207611,300.106842 143.097290,308.274109 143.262192,316.435760 
	C143.363022,321.427032 146.249573,324.297302 150.509094,324.209076 
	C154.612305,324.124084 157.057877,321.418640 157.367935,316.609589 
	C157.517380,314.291656 157.652588,311.972809 158.049225,309.902954 
	C162.566513,314.378662 166.828827,318.605743 170.786316,323.005127 
	C164.751663,328.641357 162.047806,335.479431 161.996674,343.249634 
	C161.862106,363.703461 162.306793,384.168671 161.760941,404.609039 
	C161.480576,415.107361 163.557327,424.016998 171.592010,430.817230 
	C153.854782,430.911835 136.583618,430.897644 119.312653,430.949921 
	C103.873909,430.996613 88.435394,431.116608 72.996765,431.204285 
M27.896441,280.981171 
	C27.899408,292.647095 27.947355,304.313324 27.879047,315.978821 
	C27.857410,319.674103 28.948298,322.605133 32.644119,323.869263 
	C37.607666,325.566956 41.870689,322.016998 41.924728,316.023651 
	C42.032913,304.025482 41.984898,292.025909 42.849216,279.916229 
	C44.174179,279.894196 45.507004,279.956879 46.822681,279.834778 
	C51.405674,279.409485 54.160374,276.667053 54.126682,272.650452 
	C54.091873,268.500671 51.452389,265.901672 46.660038,265.819519 
	C38.710957,265.683228 30.756977,265.722290 22.806616,265.817444 
	C18.786942,265.865540 16.191748,267.906525 15.805702,272.049377 
	C15.422569,276.160980 17.577244,278.707245 21.458136,279.583069 
	C23.528803,280.050385 25.735664,279.914185 27.896441,280.981171 
M85.423241,294.586609 
	C86.866486,299.807434 87.333931,305.583191 89.930084,310.148376 
	C98.868576,325.866272 120.916397,329.165405 132.706268,317.078186 
	C136.519089,313.169189 136.895111,309.305908 133.771393,306.135498 
	C130.804993,303.124756 127.318504,303.480347 123.133736,306.631775 
	C121.102539,308.161438 118.606789,309.606659 116.160683,309.951904 
	C109.150932,310.941376 102.470947,306.392548 100.291786,299.752045 
	C98.044716,292.904602 101.043274,285.333649 107.447899,281.785278 
	C112.743385,278.851440 117.797928,279.733551 123.183273,282.053497 
	C125.520859,283.060516 129.105988,282.901672 131.366104,281.764740 
	C132.935638,280.975250 134.296158,277.316895 133.792999,275.474823 
	C133.148987,273.117065 130.935150,270.561127 128.711945,269.360016 
	C109.372673,258.911865 86.461250,272.249786 85.423241,294.586609 
M62.204845,286.506073 
	C62.210526,296.504791 62.104786,306.505310 62.269089,316.501434 
	C62.350735,321.468567 65.315071,324.330048 69.583206,324.199524 
	C73.697472,324.073700 76.266495,321.409210 76.306564,316.517761 
	C76.423927,302.187408 76.424438,287.854919 76.307579,273.524567 
	C76.267586,268.620300 73.714180,265.966003 69.596954,265.835602 
	C65.317398,265.700073 62.469875,268.547943 62.255680,273.512848 
	C62.083443,277.505096 62.210621,281.510315 62.204845,286.506073 
z"/>
<path fill="#000000" opacity="1.000000" stroke="none" 
	d="
M19.999233,161.805389 
	C16.661604,170.921570 12.654166,179.858719 10.157191,189.199615 
	C7.088567,200.678986 5.293591,212.498032 2.889260,224.158127 
	C2.773106,224.721451 2.090986,225.168076 1.336211,225.334518 
	C1.000000,150.365662 1.000000,75.731316 1.000000,1.048486 
	C171.560455,1.048486 342.120911,1.048486 513.000000,1.048486 
	C513.000000,92.020645 513.000000,183.041672 512.673157,274.845551 
	C511.899658,274.800934 511.256317,274.022736 511.034851,273.138824 
	C503.702606,243.877106 496.375977,214.613861 489.123932,185.332153 
	C483.357666,162.049438 477.748352,138.727768 471.958649,115.450920 
	C467.731659,98.456863 463.356049,81.499458 458.975433,64.544128 
	C457.911041,60.424259 455.701050,57.041531 451.245361,56.066292 
	C448.386261,55.440495 445.406219,55.385349 442.491241,54.993664 
	C430.757080,53.416950 421.743835,47.643063 415.785156,37.361130 
	C411.927094,30.703825 407.066986,28.357513 399.647369,30.200020 
	C386.592194,33.441990 373.573669,36.831493 360.278198,39.866817 
	C340.674530,29.144129 320.185028,21.691689 298.743408,17.159353 
	C287.299835,14.740410 275.611694,12.763553 263.958893,12.232364 
	C249.748825,11.584601 235.412903,12.068172 221.219986,13.186484 
	C209.756760,14.089712 198.276321,16.020355 187.066025,18.625042 
	C164.595428,23.846029 143.463623,32.661415 123.415855,44.138245 
	C106.199890,53.993946 90.518242,65.867828 76.120911,79.436012 
	C63.552902,91.280228 52.610439,104.545074 42.649391,119.041779 
	C38.855686,125.125343 35.367172,131.032928 31.577145,137.122345 
	C27.516832,145.471268 23.758032,153.638321 19.999233,161.805389 
z"/>
<path fill="#FF4155" opacity="1.000000" stroke="none" 
	d="
M360.539795,40.159214 
	C373.573669,36.831493 386.592194,33.441990 399.647369,30.200020 
	C407.066986,28.357513 411.927094,30.703825 415.785156,37.361130 
	C421.743835,47.643063 430.757080,53.416950 442.491241,54.993664 
	C445.406219,55.385349 448.386261,55.440495 451.245361,56.066292 
	C455.701050,57.041531 457.911041,60.424259 458.975433,64.544128 
	C463.356049,81.499458 467.731659,98.456863 471.958649,115.450920 
	C477.748352,138.727768 483.357666,162.049438 489.123932,185.332153 
	C496.375977,214.613861 503.702606,243.877106 511.034851,273.138824 
	C511.256317,274.022736 511.899658,274.800934 512.673157,275.314209 
	C513.000000,280.022095 513.000000,285.044189 513.000000,290.533142 
	C500.375549,297.725800 490.081665,306.357880 488.004181,321.670563 
	C487.608459,324.587372 487.397125,327.530334 486.960968,330.440277 
	C486.167572,335.733551 481.573425,338.816559 472.436584,339.579346 
	C471.858917,321.359070 471.727600,303.572723 471.686951,285.341736 
	C471.814423,251.785767 471.884918,218.674423 471.858246,185.563156 
	C471.853210,179.289673 468.997101,175.374908 463.165985,173.689240 
	C448.891876,169.562851 439.590942,160.676254 435.704193,146.166290 
	C434.447601,141.475388 431.284241,138.522263 426.206421,137.794144 
	C424.920227,137.609711 423.763275,136.523865 422.439087,135.449142 
	C417.463348,115.362175 412.744049,95.639900 407.672546,76.008621 
	C404.558716,63.955154 393.651947,57.599102 381.472137,60.593822 
	C352.261383,67.776062 323.095398,75.140434 293.706726,82.332733 
	C293.502106,82.234161 293.083038,82.050591 293.040710,81.658241 
	C292.309814,78.228561 291.621185,75.191231 291.241638,71.969864 
	C295.503693,69.796333 296.632446,66.596924 295.638092,62.424892 
	C295.224731,60.690487 294.964691,58.919529 295.031586,57.053101 
	C304.783844,54.601730 314.154785,52.321609 323.491333,49.908566 
	C335.854889,46.713184 348.191559,43.413860 360.539795,40.159214 
z"/>
<path fill="#FF7186" opacity="1.000000" stroke="none" 
	d="
M471.596313,285.786346 
	C471.727600,303.572723 471.858917,321.359070 472.031128,339.617432 
	C472.048004,362.742493 472.024780,385.395569 471.999481,408.048676 
	C471.992218,414.578979 470.295258,416.928955 463.836700,419.044525 
	C449.371796,423.782623 439.284454,432.622681 435.907318,448.088257 
	C434.876160,452.810638 429.344269,455.931702 422.553589,455.979797 
	C412.060211,456.054169 401.565857,455.983612 390.294678,455.618774 
	C364.398132,455.193329 339.278809,455.123657 314.113037,454.610199 
	C313.886993,444.082153 313.370361,443.158905 306.989868,441.090576 
	C306.968872,437.476837 306.945770,434.289124 306.927734,430.972900 
	C306.932770,430.844360 306.984161,430.592316 307.448730,430.664185 
	C337.703552,430.764954 367.494080,430.880554 397.283875,430.781219 
	C409.670746,430.739929 417.876770,423.187897 419.461304,410.872040 
	C419.735901,408.737488 419.733704,406.557312 419.729919,404.398407 
	C419.660614,364.960785 419.571472,325.523193 419.785706,286.177063 
	C421.472931,287.434143 422.839874,288.626221 424.252625,289.761292 
	C434.011047,297.601715 444.796173,300.935760 456.670074,295.510590 
	C462.011444,293.070160 466.642792,289.075684 471.596313,285.786346 
z"/>
<path fill="#73C3F9" opacity="1.000000" stroke="none" 
	d="
M314.159515,455.053986 
	C339.278809,455.123657 364.398132,455.193329 389.841003,455.549255 
	C364.230957,475.009399 335.266174,487.860992 304.195465,495.787445 
	C292.923309,498.663086 281.138458,500.015747 269.500610,500.847839 
	C254.974350,501.886444 240.281799,502.760498 225.798752,501.743835 
	C203.131317,500.152679 180.960449,495.148315 159.659821,486.979126 
	C139.214142,479.137787 119.839272,469.232635 102.279930,455.636780 
	C104.410423,455.220734 106.559349,455.084869 108.708771,455.076477 
	C130.093033,454.992889 151.477386,454.930359 173.339325,454.931946 
	C215.824570,455.015991 257.832184,455.029968 299.913330,455.407471 
	C300.853607,459.581848 303.060455,462.033844 307.126465,461.944397 
	C311.453888,461.849274 313.508881,459.082977 314.159515,455.053986 
z"/>
<path fill="#E80154" opacity="1.000000" stroke="none" 
	d="
M172.861710,454.861877 
	C151.477386,454.930359 130.093033,454.992889 108.708771,455.076477 
	C106.559349,455.084869 104.410423,455.220734 101.907593,455.579712 
	C92.126633,447.839233 82.699348,439.816498 73.134415,431.499023 
	C88.435394,431.116608 103.873909,430.996613 119.312653,430.949921 
	C136.583618,430.897644 153.854782,430.911835 171.549713,430.884705 
	C171.973587,430.872284 171.984619,431.031006 171.834396,431.338501 
	C165.081741,441.219177 165.298676,445.496307 172.861710,454.861877 
z"/>
<path fill="#FEE784" opacity="1.000000" stroke="none" 
	d="
M178.911316,197.856140 
	C178.711975,197.231430 178.646805,196.515686 178.293701,195.995316 
	C169.540436,183.096146 169.874527,174.460770 179.743378,162.306702 
	C179.862656,161.986115 179.869156,161.828400 180.343506,161.891708 
	C222.876877,162.004562 264.935913,162.054108 306.996643,162.459503 
	C307.009399,163.526947 307.020508,164.238541 306.676727,165.032852 
	C300.476257,167.593216 299.819824,169.055374 299.957367,177.327682 
	C300.038666,182.217102 302.329041,185.020065 307.011719,186.484650 
	C307.045898,191.197617 307.085297,195.449738 306.743958,199.785370 
	C300.413177,201.824112 299.880829,203.063156 299.945007,211.888748 
	C299.981445,216.904495 302.208252,219.656342 307.100037,220.757446 
	C307.052704,225.462997 307.032257,229.724411 306.660400,234.069427 
	C300.390320,236.674271 299.795898,238.125565 299.947632,246.921402 
	C300.032227,251.822815 302.742615,254.033127 307.027527,255.519531 
	C307.047699,260.243134 307.079102,264.507782 306.730225,268.843018 
	C300.422791,270.860809 299.892639,272.115479 299.941559,280.937958 
	C299.969513,285.977966 302.277924,288.659210 307.099731,289.833405 
	C307.084686,294.765656 307.096130,299.258453 306.709656,303.767822 
	C301.498657,304.211548 300.127014,307.373993 299.987427,311.615997 
	C299.697540,320.426788 300.493286,321.875824 307.040710,324.553467 
	C307.043762,329.291077 307.063202,333.571503 306.708893,337.906860 
	C300.477631,340.177887 299.665924,341.947968 299.970337,350.574097 
	C300.138245,355.332062 302.443878,357.896973 307.079254,358.909607 
	C307.074738,363.818542 307.089783,368.292725 306.708801,372.789551 
	C300.863892,373.383575 299.991699,377.160767 299.973846,381.675873 
	C299.941803,389.786407 300.894745,391.401306 307.056030,393.593475 
	C307.048615,398.318512 307.063721,402.589264 306.707275,406.918304 
	C300.466003,409.246948 299.678619,410.979675 299.966553,419.590027 
	C300.125763,424.351501 302.439850,426.899536 307.072815,427.821777 
	C307.045532,428.951172 307.014862,429.771729 306.984192,430.592316 
	C306.984161,430.592316 306.932770,430.844360 306.470886,430.912292 
	C269.135284,430.919739 232.261597,430.843964 195.387848,430.811005 
	C187.586838,430.804016 179.785706,430.953583 171.984619,431.031006 
	C171.984619,431.031006 171.973587,430.872284 172.015869,430.804810 
	C163.557327,424.016998 161.480576,415.107361 161.760941,404.609039 
	C162.306793,384.168671 161.862106,363.703461 161.996674,343.249634 
	C162.047806,335.479431 164.751663,328.641357 171.164917,323.134216 
	C175.788177,324.999939 179.384598,324.761444 181.862961,320.836395 
	C184.259964,317.040192 182.461349,313.991882 179.689575,311.100189 
	C174.196243,305.369232 168.857925,299.489685 163.103394,293.292297 
	C167.521240,289.213867 172.531052,284.664032 177.455399,280.023438 
	C183.175369,274.633026 182.693024,270.377747 175.985611,266.149567 
	C172.158752,259.303101 167.989975,252.300278 171.121780,244.195282 
	C172.861084,239.694016 176.124222,235.781540 179.317490,231.278564 
	C200.907700,230.957825 221.880997,230.941833 242.854187,230.980194 
	C248.453705,230.990433 253.450562,229.477097 257.131927,225.120880 
	C261.643921,219.781738 262.380310,213.620224 259.512756,207.360718 
	C256.710632,201.243988 251.635590,198.015244 244.822159,197.989410 
	C222.852020,197.906097 200.881622,197.895035 178.911316,197.856140 
M189.013809,292.850037 
	C189.055618,294.568146 189.097412,296.286285 189.021271,298.934448 
	C189.012024,304.600586 188.933487,310.267731 189.013306,315.932617 
	C189.090775,321.429688 191.517395,323.950989 196.869492,324.049957 
	C202.533798,324.154724 208.203033,324.152802 213.867355,324.047882 
	C218.473251,323.962524 221.517029,321.213989 221.638443,317.310089 
	C221.766144,313.204498 218.635223,310.229462 213.797882,310.061646 
	C210.348740,309.941956 206.892105,310.038391 203.123795,310.038391 
	C203.123795,306.993439 203.123795,304.532257 204.033813,302.047272 
	C207.013260,302.034241 209.999100,302.140289 212.970673,301.980652 
	C217.543289,301.734924 220.323746,298.931610 220.091766,294.794769 
	C219.847183,290.432953 217.263535,288.239014 213.032364,288.036377 
	C209.728546,287.878174 206.413071,287.963867 203.039841,287.050079 
	C203.039841,284.799377 203.039841,282.548676 203.039841,279.965637 
	C207.407364,279.965637 211.065689,280.145172 214.698685,279.918549 
	C218.884674,279.657440 221.866745,276.584167 221.584564,272.815155 
	C221.266312,268.564514 218.812668,266.071503 214.464279,265.982544 
	C208.467270,265.859894 202.463028,265.828613 196.467468,265.979950 
	C191.665909,266.101135 189.116989,268.684326 189.035965,273.509247 
	C188.932465,279.670441 189.093231,285.836090 189.013809,292.850037 
M255.776184,279.925781 
	C256.936371,279.910614 258.101227,279.956909 259.255981,279.869568 
	C264.165100,279.498199 267.104095,276.721069 267.023956,272.581787 
	C266.942963,268.398193 264.059967,265.863464 258.931610,265.799438 
	C251.307709,265.704193 243.680176,265.689880 236.057114,265.816589 
	C231.476532,265.892731 228.484238,268.723236 228.426331,272.612854 
	C228.368042,276.527069 231.287003,279.437134 235.777481,279.856842 
	C237.424652,280.010773 239.086105,280.012054 240.757462,281.009308 
	C240.763260,292.668427 240.793427,304.327637 240.762283,315.986664 
	C240.750656,320.344055 242.216644,323.549805 246.976410,324.119598 
	C251.589874,324.671875 254.748260,321.477753 254.806839,315.985352 
	C254.934753,303.994751 254.889465,292.002289 255.776184,279.925781 
M211.500305,375.893982 
	C205.681168,375.908234 199.819733,375.527618 194.065048,376.143768 
	C191.956482,376.369537 188.901245,378.664246 188.441650,380.544098 
	C187.900009,382.759674 189.162018,385.966766 190.681519,387.945740 
	C191.726471,389.306671 194.535599,389.817291 196.564911,389.837585 
	C211.527344,389.987274 226.492264,389.970551 241.455750,389.888824 
	C246.625046,389.860596 249.876419,386.953552 249.957169,382.716309 
	C250.040024,378.369690 247.089630,375.944916 241.430405,375.912933 
	C231.787262,375.858459 222.143616,375.895264 211.500305,375.893982 
M244.502029,365.505219 
	C248.254242,364.215302 250.363205,361.635864 249.868103,357.629089 
	C249.360306,353.519531 246.402420,351.682434 242.567123,351.524048 
	C237.783173,351.326447 232.954834,351.169312 228.199295,351.594513 
	C222.917358,352.066803 220.617615,354.805847 220.921188,359.148682 
	C221.205582,363.216827 224.185867,365.726349 229.275818,365.833191 
	C234.073486,365.933868 238.876785,365.765808 244.502029,365.505219 
z"/>
<path fill="#FEE884" opacity="1.000000" stroke="none" 
	d="
M175.284821,230.574188 
	C173.467438,230.720612 171.650146,230.993851 169.832672,230.994873 
	C126.066269,231.019669 82.299858,231.021027 38.533440,231.011322 
	C30.186880,231.009476 23.973644,226.371933 21.933060,218.705215 
	C19.888428,211.023300 22.879189,203.695251 29.987719,199.724991 
	C31.787964,198.719513 34.046970,198.052826 36.097012,198.048187 
	C81.194260,197.946289 126.291779,197.958099 171.389236,197.966660 
	C172.038406,197.966782 172.687531,198.201447 173.544006,198.891937 
	C173.393814,199.798569 173.064667,200.176895 172.674713,200.475906 
	C162.090836,208.591385 162.307983,220.646637 173.165146,228.562943 
	C173.945602,229.131989 174.581635,229.899139 175.284821,230.574188 
z"/>
<path fill="#E80054" opacity="1.000000" stroke="none" 
	d="
M20.462627,161.875473 
	C23.758032,153.638321 27.516832,145.471268 32.053509,137.138275 
	C45.605057,137.013290 58.378727,137.054245 71.439926,137.341614 
	C73.278526,137.613571 74.829597,137.639114 76.824005,137.630325 
	C108.747589,137.591568 140.227844,137.594986 171.708084,137.565460 
	C173.859192,137.563446 176.010086,137.314819 178.422424,137.321594 
	C178.856964,137.558075 179.030121,137.653839 179.025269,138.071930 
	C172.042419,147.968933 172.243073,152.570389 179.869156,161.828400 
	C179.869156,161.828400 179.862656,161.986115 179.927872,162.029892 
	C132.455627,162.049088 84.918167,162.026016 37.380707,161.997940 
	C31.895803,161.994690 26.410915,161.963684 20.462627,161.875473 
z"/>
<path fill="#FCF5DF" opacity="1.000000" stroke="none" 
	d="
M175.656067,230.607315 
	C174.581635,229.899139 173.945602,229.131989 173.165146,228.562943 
	C162.307983,220.646637 162.090836,208.591385 172.674713,200.475906 
	C173.064667,200.176895 173.393814,199.798569 173.883972,199.130951 
	C175.411560,198.519974 176.806488,198.235260 178.556366,197.903351 
	C200.881622,197.895035 222.852020,197.906097 244.822159,197.989410 
	C251.635590,198.015244 256.710632,201.243988 259.512756,207.360718 
	C262.380310,213.620224 261.643921,219.781738 257.131927,225.120880 
	C253.450562,229.477097 248.453705,230.990433 242.854187,230.980194 
	C221.880997,230.941833 200.907700,230.957825 179.466125,230.978088 
	C178.007645,230.881989 177.017471,230.761215 175.656067,230.607315 
z"/>
<path fill="#4E6DB0" opacity="1.000000" stroke="none" 
	d="
M85.451141,294.167542 
	C86.461250,272.249786 109.372673,258.911865 128.711945,269.360016 
	C130.935150,270.561127 133.148987,273.117065 133.792999,275.474823 
	C134.296158,277.316895 132.935638,280.975250 131.366104,281.764740 
	C129.105988,282.901672 125.520859,283.060516 123.183273,282.053497 
	C117.797928,279.733551 112.743385,278.851440 107.447899,281.785278 
	C101.043274,285.333649 98.044716,292.904602 100.291786,299.752045 
	C102.470947,306.392548 109.150932,310.941376 116.160683,309.951904 
	C118.606789,309.606659 121.102539,308.161438 123.133736,306.631775 
	C127.318504,303.480347 130.804993,303.124756 133.771393,306.135498 
	C136.895111,309.305908 136.519089,313.169189 132.706268,317.078186 
	C120.916397,329.165405 98.868576,325.866272 89.930084,310.148376 
	C87.333931,305.583191 86.866486,299.807434 85.451141,294.167542 
z"/>
<path fill="#648ACA" opacity="1.000000" stroke="none" 
	d="
M175.605743,266.177124 
	C182.693024,270.377747 183.175369,274.633026 177.455399,280.023438 
	C172.531052,284.664032 167.521240,289.213867 163.103394,293.292297 
	C168.857925,299.489685 174.196243,305.369232 179.689575,311.100189 
	C182.461349,313.991882 184.259964,317.040192 181.862961,320.836395 
	C179.384598,324.761444 175.788177,324.999939 171.469742,322.961975 
	C166.828827,318.605743 162.566513,314.378662 157.878891,309.658813 
	C154.181717,306.132599 150.765747,303.238098 147.673782,300.031219 
	C143.627258,295.834351 144.126312,291.455170 148.502258,287.634491 
	C151.618698,284.913452 154.495895,281.918365 157.479843,279.045593 
	C161.048431,275.817871 164.458008,272.384857 168.250946,269.446747 
	C170.227173,267.915863 172.879135,267.257294 175.605743,266.177124 
z"/>
<path fill="#4F6EAF" opacity="1.000000" stroke="none" 
	d="
M62.204895,286.007935 
	C62.210621,281.510315 62.083443,277.505096 62.255680,273.512848 
	C62.469875,268.547943 65.317398,265.700073 69.596954,265.835602 
	C73.714180,265.966003 76.267586,268.620300 76.307579,273.524567 
	C76.424438,287.854919 76.423927,302.187408 76.306564,316.517761 
	C76.266495,321.409210 73.697472,324.073700 69.583206,324.199524 
	C65.315071,324.330048 62.350735,321.468567 62.269089,316.501434 
	C62.104786,306.505310 62.210526,296.504791 62.204895,286.007935 
z"/>
<path fill="#4D6CB1" opacity="1.000000" stroke="none" 
	d="
M42.001373,280.026917 
	C41.984898,292.025909 42.032913,304.025482 41.924728,316.023651 
	C41.870689,322.016998 37.607666,325.566956 32.644119,323.869263 
	C28.948298,322.605133 27.857410,319.674103 27.879047,315.978821 
	C27.947355,304.313324 27.899408,292.647095 28.360779,280.497131 
	C33.217205,280.017700 37.609287,280.022308 42.001373,280.026917 
z"/>
<path fill="#516FAE" opacity="1.000000" stroke="none" 
	d="
M157.451294,278.554932 
	C154.495895,281.918365 151.618698,284.913452 148.502258,287.634491 
	C144.126312,291.455170 143.627258,295.834351 147.673782,300.031219 
	C150.765747,303.238098 154.181717,306.132599 157.623901,309.410217 
	C157.652588,311.972809 157.517380,314.291656 157.367935,316.609589 
	C157.057877,321.418640 154.612305,324.124084 150.509094,324.209076 
	C146.249573,324.297302 143.363022,321.427032 143.262192,316.435760 
	C143.097290,308.274109 143.207611,300.106842 143.204559,291.941956 
	C143.202515,286.443115 143.180161,280.944153 143.212173,275.445496 
	C143.249390,269.054474 145.522156,265.941681 150.156860,265.833801 
	C154.891937,265.723572 157.255722,268.735016 157.395264,275.065033 
	C157.417297,276.064514 157.414200,277.064514 157.451294,278.554932 
z"/>
<path fill="#648ACA" opacity="1.000000" stroke="none" 
	d="
M42.425293,279.971588 
	C37.609287,280.022308 33.217205,280.017700 28.353088,280.031738 
	C25.735664,279.914185 23.528803,280.050385 21.458136,279.583069 
	C17.577244,278.707245 15.422569,276.160980 15.805702,272.049377 
	C16.191748,267.906525 18.786942,265.865540 22.806616,265.817444 
	C30.756977,265.722290 38.710957,265.683228 46.660038,265.819519 
	C51.452389,265.901672 54.091873,268.500671 54.126682,272.650452 
	C54.160374,276.667053 51.405674,279.409485 46.822681,279.834778 
	C45.507004,279.956879 44.174179,279.894196 42.425293,279.971588 
z"/>
<path fill="#73C3F9" opacity="1.000000" stroke="none" 
	d="
M360.278198,39.866810 
	C348.191559,43.413860 335.854889,46.713184 323.491333,49.908566 
	C314.154785,52.321609 304.783844,54.601730 294.816650,56.802170 
	C292.448914,52.906826 289.525299,51.068615 285.471039,52.216545 
	C281.336975,53.387077 280.225159,56.765194 279.971497,60.805679 
	C266.007324,64.262352 252.450302,67.599518 238.908417,70.997116 
	C213.602509,77.346245 188.305389,83.730461 162.606018,90.060158 
	C130.490616,97.901062 98.785713,105.830254 67.048721,113.628876 
	C59.070152,115.589417 50.988739,117.131432 42.954586,118.865791 
	C52.610439,104.545074 63.552902,91.280228 76.120911,79.436012 
	C90.518242,65.867828 106.199890,53.993946 123.415855,44.138245 
	C143.463623,32.661415 164.595428,23.846029 187.066025,18.625042 
	C198.276321,16.020355 209.756760,14.089712 221.219986,13.186484 
	C235.412903,12.068172 249.748825,11.584601 263.958893,12.232364 
	C275.611694,12.763553 287.299835,14.740410 298.743408,17.159353 
	C320.185028,21.691689 340.674530,29.144129 360.278198,39.866810 
z"/>
<path fill="#CC0154" opacity="1.000000" stroke="none" 
	d="
M42.649391,119.041779 
	C50.988739,117.131432 59.070152,115.589417 67.048721,113.628876 
	C98.785713,105.830254 130.490616,97.901062 162.528198,90.460442 
	C160.948013,98.885529 161.281418,106.135590 169.310791,110.938866 
	C169.994797,111.348038 170.460648,112.121902 170.641815,112.848686 
	C162.860718,114.816696 155.469345,116.677406 148.069839,118.505280 
	C124.101288,124.426132 100.129761,130.334946 75.801704,136.305878 
	C74.013489,136.607300 72.582939,136.851257 71.152397,137.095200 
	C58.378727,137.054245 45.605057,137.013290 32.355022,136.956421 
	C35.367172,131.032928 38.855686,125.125343 42.649391,119.041779 
z"/>
<path fill="#F9A0B1" opacity="1.000000" stroke="none" 
	d="
M471.686951,285.341736 
	C466.642792,289.075684 462.011444,293.070160 456.670074,295.510590 
	C444.796173,300.935760 434.011047,297.601715 424.252625,289.761292 
	C422.839874,288.626221 421.472931,287.434143 419.685242,285.767273 
	C419.483368,283.284637 419.850830,281.303467 419.853210,279.321808 
	C419.890076,248.517944 420.072266,217.711655 419.694183,186.912399 
	C419.629791,181.669266 418.098419,175.900269 415.520508,171.351379 
	C410.938049,163.265350 402.630646,161.539734 393.714905,161.568665 
	C386.861115,153.095932 386.546021,148.897766 391.939728,140.062347 
	C392.362854,139.369217 392.657135,138.597412 393.364655,137.654724 
	C401.118988,137.323471 408.522888,137.283478 415.919098,137.024811 
	C418.139343,136.947174 420.338257,136.260117 422.546936,135.852234 
	C423.763275,136.523865 424.920227,137.609711 426.206421,137.794144 
	C431.284241,138.522263 434.447601,141.475388 435.704193,146.166290 
	C439.590942,160.676254 448.891876,169.562851 463.165985,173.689240 
	C468.997101,175.374908 471.853210,179.289673 471.858246,185.563156 
	C471.884918,218.674423 471.814423,251.785767 471.686951,285.341736 
z"/>
<path fill="#FCF1C7" opacity="1.000000" stroke="none" 
	d="
M422.439087,135.449158 
	C420.338257,136.260117 418.139343,136.947174 415.919098,137.024811 
	C408.522888,137.283478 401.118988,137.323471 392.894897,137.641113 
	C366.110321,137.834381 340.148926,137.833847 314.088440,137.455933 
	C313.251556,133.737457 312.510986,130.396988 311.776489,127.055168 
	C310.391205,120.752525 308.573761,119.216286 302.040009,118.450546 
	C300.967743,113.979134 299.912842,109.905907 299.105774,105.585899 
	C304.842712,103.117569 304.693359,98.842461 303.514832,94.116165 
	C301.712250,86.886986 300.752075,85.968811 294.076660,85.190208 
	C294.013306,84.065125 293.962311,83.248215 293.911346,82.431305 
	C323.095398,75.140434 352.261383,67.776062 381.472137,60.593822 
	C393.651947,57.599102 404.558716,63.955154 407.672546,76.008621 
	C412.744049,95.639900 417.463348,115.362175 422.439087,135.449158 
M367.791321,117.264175 
	C372.637970,116.081482 377.505890,114.978447 382.325470,113.694191 
	C387.377838,112.347916 389.862976,108.759079 388.752350,104.713043 
	C387.653168,100.708748 384.175659,98.979568 379.196167,99.962440 
	C378.706421,100.059105 378.213318,100.143936 377.729584,100.265373 
	C363.697601,103.788170 349.663330,107.302078 335.636993,110.847313 
	C329.972870,112.278954 327.322784,115.430977 328.184296,119.587502 
	C329.112640,124.066536 333.066132,125.920555 338.923828,124.489983 
	C348.292969,122.201866 357.643616,119.838013 367.791321,117.264175 
z"/>
<path fill="#FEE683" opacity="1.000000" stroke="none" 
	d="
M298.857910,105.832687 
	C299.912842,109.905907 300.967743,113.979134 301.749023,118.656265 
	C297.540375,121.830849 296.192352,125.243027 297.756958,129.820221 
	C298.650818,132.435150 299.196259,135.169174 299.436646,137.829819 
	C259.050903,137.789902 219.127106,137.769760 179.203293,137.749603 
	C179.030121,137.653839 178.856964,137.558075 178.278046,137.055984 
	C170.349991,130.161240 167.711334,122.443230 172.267487,112.842010 
	C198.836029,106.118927 225.067963,99.604744 251.269943,92.972176 
	C265.234375,89.437309 279.147003,85.697754 293.083038,82.050583 
	C293.083038,82.050591 293.502106,82.234161 293.706726,82.332733 
	C293.962311,83.248215 294.013306,84.065125 293.741211,85.371346 
	C288.369568,88.220985 288.630768,92.199234 289.626312,96.831177 
	C290.754761,102.081184 292.684296,105.994675 298.857910,105.832687 
z"/>
<path fill="#E80255" opacity="1.000000" stroke="none" 
	d="
M293.040710,81.658234 
	C279.147003,85.697754 265.234375,89.437309 251.269943,92.972176 
	C225.067963,99.604744 198.836029,106.118927 172.048981,112.760925 
	C171.481430,112.839500 171.027832,112.726349 171.027832,112.726349 
	C170.460648,112.121902 169.994797,111.348038 169.310791,110.938866 
	C161.281418,106.135590 160.948013,98.885529 162.926819,90.500359 
	C188.305389,83.730461 213.602509,77.346245 238.908417,70.997116 
	C252.450302,67.599518 266.007324,64.262352 280.145081,61.128693 
	C283.454407,71.283318 283.892365,71.746796 290.932556,72.153900 
	C291.621185,75.191231 292.309814,78.228561 293.040710,81.658234 
z"/>
<path fill="#FDB035" opacity="1.000000" stroke="none" 
	d="
M291.241638,71.969864 
	C283.892365,71.746796 283.454407,71.283318 280.559082,61.036446 
	C280.225159,56.765194 281.336975,53.387077 285.471039,52.216545 
	C289.525299,51.068615 292.448914,52.906826 294.420044,56.914261 
	C294.964691,58.919529 295.224731,60.690487 295.638092,62.424892 
	C296.632446,66.596924 295.503693,69.796333 291.241638,71.969864 
z"/>
<path fill="#FCF1C7" opacity="1.000000" stroke="none" 
	d="
M393.866089,161.855576 
	C402.630646,161.539734 410.938049,163.265350 415.520508,171.351379 
	C418.098419,175.900269 419.629791,181.669266 419.694183,186.912399 
	C420.072266,217.711655 419.890076,248.517944 419.853210,279.321808 
	C419.850830,281.303467 419.483368,283.284637 419.386169,285.675842 
	C419.571472,325.523193 419.660614,364.960785 419.729919,404.398407 
	C419.733704,406.557312 419.735901,408.737488 419.461304,410.872040 
	C417.876770,423.187897 409.670746,430.739929 397.283875,430.781219 
	C367.494080,430.880554 337.703552,430.764954 307.448761,430.664185 
	C307.014862,429.771729 307.045532,428.951172 307.454529,427.737946 
	C313.472473,425.412933 314.074707,424.046539 314.062408,415.595886 
	C314.055237,410.658051 311.993744,407.705261 307.078827,406.859985 
	C307.063721,402.589264 307.048615,398.318512 307.413452,393.519348 
	C313.790222,390.590088 315.011932,387.873322 313.980377,379.175842 
	C313.498016,375.108917 311.257324,372.907074 307.104828,372.766876 
	C307.089783,368.292725 307.074738,363.818542 307.453918,358.810730 
	C313.451233,356.363861 314.082458,354.959503 314.056427,346.537170 
	C314.041260,341.631348 312.054901,338.622742 307.082672,337.851929 
	C307.063202,333.571503 307.043762,329.291077 307.391144,324.466003 
	C313.832367,321.402496 315.003082,318.809601 313.980957,310.121674 
	C313.501526,306.046600 311.267487,303.858429 307.107605,303.751251 
	C307.096130,299.258453 307.084686,294.765656 307.465118,289.739014 
	C313.612091,287.129333 314.231720,285.712769 314.051971,276.942200 
	C313.954498,272.184753 311.819000,269.461884 307.110474,268.772430 
	C307.079102,264.507782 307.047699,260.243134 307.375000,255.424988 
	C313.645050,252.447083 314.121307,251.263184 314.067108,242.687210 
	C314.035675,237.706635 311.635101,235.044266 307.011810,233.985809 
	C307.032257,229.724411 307.052704,225.462997 307.463501,220.672379 
	C313.610535,218.057465 314.220764,216.651077 314.053741,207.884857 
	C313.962982,203.119873 311.816742,200.413040 307.124664,199.701874 
	C307.085297,195.449738 307.045898,191.197617 307.356934,186.381805 
	C313.582520,183.426804 314.070740,182.196167 314.072693,173.626083 
	C314.073853,168.608948 311.659912,165.990387 307.031586,164.950134 
	C307.020508,164.238541 307.009399,163.526947 306.987915,162.405518 
	C306.977509,161.995697 306.983368,161.886612 307.450195,161.925812 
	C336.566742,161.928513 365.216400,161.892044 393.866089,161.855576 
M373.496796,262.000092 
	C377.660217,261.999146 381.824799,262.060364 385.986725,261.981506 
	C391.197174,261.882812 393.977692,259.480194 394.069824,255.159744 
	C394.166412,250.628647 391.306335,248.028595 385.831848,248.006683 
	C370.677246,247.946030 355.522156,247.948898 340.367493,248.003448 
	C334.810608,248.023438 331.937164,250.533356 331.976898,255.025391 
	C332.014954,259.327759 335.155853,261.959167 340.523010,261.984039 
	C351.181152,262.033447 361.839661,261.999542 373.496796,262.000092 
M392.838318,283.192169 
	C395.638977,276.226929 393.026794,272.086090 385.594086,272.046478 
	C370.638214,271.966797 355.681519,271.994446 340.725342,272.036530 
	C335.080841,272.052399 331.851257,274.808533 331.976837,279.286865 
	C332.100433,283.693451 334.983124,286.026855 340.601929,286.042023 
	C355.558136,286.082306 370.515747,286.149750 385.469543,285.956055 
	C387.767120,285.926300 390.047546,284.571136 392.838318,283.192169 
M372.496765,389.861053 
	C377.326691,389.848328 382.166718,390.024963 386.983612,389.767975 
	C391.524536,389.525696 394.334656,386.457642 394.076721,382.383972 
	C393.794708,377.930328 391.123169,375.846191 386.830994,375.835114 
	C371.008331,375.794342 355.185486,375.804962 339.362762,375.828857 
	C335.334290,375.834930 332.617035,377.707062 332.046875,381.830505 
	C331.511444,385.703064 333.471497,388.245117 337.082855,389.388611 
	C338.471680,389.828369 340.033936,389.835480 341.517914,389.840912 
	C351.511169,389.877380 361.504608,389.860443 372.496765,389.861053 
M386.053040,237.973175 
	C391.459320,237.302170 394.106689,235.045334 394.049194,230.946426 
	C393.991241,226.812469 391.770142,224.108810 387.684052,224.066360 
	C371.202179,223.895096 354.716675,223.915237 338.234375,224.066162 
	C334.639069,224.099075 332.462189,226.474823 332.033752,230.094528 
	C331.598663,233.770615 333.456055,236.232727 336.780487,237.377197 
	C338.453125,237.953033 340.375671,237.950409 342.185913,237.955688 
	C356.505585,237.997467 370.825409,237.978088 386.053040,237.973175 
M335.878662,213.006866 
	C336.501587,213.233826 337.123596,213.656235 337.747589,213.659210 
	C354.351807,213.738724 370.958527,213.937927 387.558929,213.702087 
	C391.616150,213.644440 394.313293,210.821945 394.042389,206.378281 
	C393.773376,201.965500 391.014984,199.893417 386.752716,199.881866 
	C370.973206,199.839066 355.188995,199.677338 339.418854,200.063309 
	C337.026337,200.121857 333.865601,202.326889 332.544250,204.458847 
	C330.734741,207.378525 332.200470,210.549484 335.878662,213.006866 
M383.210266,351.389160 
	C379.075867,351.521515 374.918945,351.433624 370.813812,351.852600 
	C367.221039,352.219299 365.246246,354.654755 365.023071,358.232849 
	C364.796936,361.859039 366.650574,364.851166 370.077972,365.163239 
	C376.292969,365.729095 382.622131,365.725342 388.846375,365.233948 
	C392.285645,364.962402 394.197296,362.100677 394.106049,358.446564 
	C394.015289,354.812714 392.058868,352.581787 388.548096,351.823517 
	C387.105164,351.511841 385.591888,351.525879 383.210266,351.389160 
z"/>
<path fill="#FF4155" opacity="1.000000" stroke="none" 
	d="
M171.834396,431.338501 
	C179.785706,430.953583 187.586838,430.804016 195.387848,430.811005 
	C232.261597,430.843964 269.135284,430.919739 306.465820,431.040833 
	C306.945770,434.289124 306.968872,437.476837 306.612061,441.195984 
	C301.662354,442.417389 300.009521,445.385864 299.990082,449.666992 
	C299.981934,451.459503 299.892365,453.251648 299.839813,455.043945 
	C257.832184,455.029968 215.824570,455.015991 173.339325,454.931946 
	C165.298676,445.496307 165.081741,441.219177 171.834396,431.338501 
z"/>
<path fill="#FEB234" opacity="1.000000" stroke="none" 
	d="
M299.913330,455.407471 
	C299.892365,453.251648 299.981934,451.459503 299.990082,449.666992 
	C300.009521,445.385864 301.662354,442.417389 306.609985,441.622009 
	C313.370361,443.158905 313.886993,444.082153 314.113037,454.610199 
	C313.508881,459.082977 311.453888,461.849274 307.126465,461.944397 
	C303.060455,462.033844 300.853607,459.581848 299.913330,455.407471 
z"/>
<path fill="#FF4355" opacity="1.000000" stroke="none" 
	d="
M179.025269,138.071930 
	C219.127106,137.769760 259.050903,137.789902 299.460205,138.287460 
	C300.017212,148.599945 300.522705,149.499725 306.981445,151.714478 
	C306.987122,155.397766 306.985229,158.642197 306.983368,161.886612 
	C306.983368,161.886612 306.977509,161.995697 306.986237,162.049683 
	C264.935913,162.054108 222.876877,162.004562 180.343506,161.891708 
	C172.243073,152.570389 172.042419,147.968933 179.025269,138.071930 
z"/>
<path fill="#FFB434" opacity="1.000000" stroke="none" 
	d="
M212.000244,375.893829 
	C222.143616,375.895264 231.787262,375.858459 241.430405,375.912933 
	C247.089630,375.944916 250.040024,378.369690 249.957169,382.716309 
	C249.876419,386.953552 246.625046,389.860596 241.455750,389.888824 
	C226.492264,389.970551 211.527344,389.987274 196.564911,389.837585 
	C194.535599,389.817291 191.726471,389.306671 190.681519,387.945740 
	C189.162018,385.966766 187.900009,382.759674 188.441650,380.544098 
	C188.901245,378.664246 191.956482,376.369537 194.065048,376.143768 
	C199.819733,375.527618 205.681168,375.908234 212.000244,375.893829 
z"/>
<path fill="#4C6BB2" opacity="1.000000" stroke="none" 
	d="
M254.914948,280.010620 
	C254.889465,292.002289 254.934753,303.994751 254.806839,315.985352 
	C254.748260,321.477753 251.589874,324.671875 246.976410,324.119598 
	C242.216644,323.549805 240.750656,320.344055 240.762283,315.986664 
	C240.793427,304.327637 240.763260,292.668427 241.230713,280.519470 
	C246.107635,280.023315 250.511292,280.016968 254.914948,280.010620 
z"/>
<path fill="#4D6CB2" opacity="1.000000" stroke="none" 
	d="
M203.123795,302.071106 
	C203.123795,304.532257 203.123795,306.993439 203.123795,310.038391 
	C206.892105,310.038391 210.348740,309.941956 213.797882,310.061646 
	C218.635223,310.229462 221.766144,313.204498 221.638443,317.310089 
	C221.517029,321.213989 218.473251,323.962524 213.867355,324.047882 
	C208.203033,324.152802 202.533798,324.154724 196.869492,324.049957 
	C191.517395,323.950989 189.090775,321.429688 189.013306,315.932617 
	C188.933487,310.267731 189.012024,304.600586 189.367416,298.657959 
	C193.179413,303.261292 198.401947,301.756348 203.123795,302.071106 
z"/>
<path fill="#4C6CB2" opacity="1.000000" stroke="none" 
	d="
M189.140106,291.999817 
	C189.093231,285.836090 188.932465,279.670441 189.035965,273.509247 
	C189.116989,268.684326 191.665909,266.101135 196.467468,265.979950 
	C202.463028,265.828613 208.467270,265.859894 214.464279,265.982544 
	C218.812668,266.071503 221.266312,268.564514 221.584564,272.815155 
	C221.866745,276.584167 218.884674,279.657440 214.698685,279.918549 
	C211.065689,280.145172 207.407364,279.965637 203.039841,279.965637 
	C203.039841,282.548676 203.039841,284.799377 202.617065,287.513184 
	C197.381866,287.821625 192.520844,287.509430 189.140106,291.999817 
z"/>
<path fill="#668AC8" opacity="1.000000" stroke="none" 
	d="
M255.345566,279.968201 
	C250.511292,280.016968 246.107635,280.023315 241.222504,280.056335 
	C239.086105,280.012054 237.424652,280.010773 235.777481,279.856842 
	C231.287003,279.437134 228.368042,276.527069 228.426331,272.612854 
	C228.484238,268.723236 231.476532,265.892731 236.057114,265.816589 
	C243.680176,265.689880 251.307709,265.704193 258.931610,265.799438 
	C264.059967,265.863464 266.942963,268.398193 267.023956,272.581787 
	C267.104095,276.721069 264.165100,279.498199 259.255981,279.869568 
	C258.101227,279.956909 256.936371,279.910614 255.345566,279.968201 
z"/>
<path fill="#638ACB" opacity="1.000000" stroke="none" 
	d="
M189.076950,292.424927 
	C192.520844,287.509430 197.381866,287.821625 202.648529,287.958740 
	C206.413071,287.963867 209.728546,287.878174 213.032364,288.036377 
	C217.263535,288.239014 219.847183,290.432953 220.091766,294.794769 
	C220.323746,298.931610 217.543289,301.734924 212.970673,301.980652 
	C209.999100,302.140289 207.013260,302.034241 203.578796,302.059204 
	C198.401947,301.756348 193.179413,303.261292 189.426392,298.192932 
	C189.097412,296.286285 189.055618,294.568146 189.076950,292.424927 
z"/>
<path fill="#FF9635" opacity="1.000000" stroke="none" 
	d="
M244.089813,365.610596 
	C238.876785,365.765808 234.073486,365.933868 229.275818,365.833191 
	C224.185867,365.726349 221.205582,363.216827 220.921188,359.148682 
	C220.617615,354.805847 222.917358,352.066803 228.199295,351.594513 
	C232.954834,351.169312 237.783173,351.326447 242.567123,351.524048 
	C246.402420,351.682434 249.360306,353.519531 249.868103,357.629089 
	C250.363205,361.635864 248.254242,364.215302 244.089813,365.610596 
z"/>
<path fill="#FFB435" opacity="1.000000" stroke="none" 
	d="
M306.743958,199.785370 
	C311.816742,200.413040 313.962982,203.119873 314.053741,207.884857 
	C314.220764,216.651077 313.610535,218.057465 307.490356,220.228226 
	C302.208252,219.656342 299.981445,216.904495 299.945007,211.888748 
	C299.880829,203.063156 300.413177,201.824112 306.743958,199.785370 
z"/>
<path fill="#FFB434" opacity="1.000000" stroke="none" 
	d="
M306.660400,234.069427 
	C311.635101,235.044266 314.035675,237.706635 314.067108,242.687210 
	C314.121307,251.263184 313.645050,252.447083 307.386169,254.966034 
	C302.742615,254.033127 300.032227,251.822815 299.947632,246.921402 
	C299.795898,238.125565 300.390320,236.674271 306.660400,234.069427 
z"/>
<path fill="#FFB435" opacity="1.000000" stroke="none" 
	d="
M306.730194,268.843018 
	C311.819000,269.461884 313.954498,272.184753 314.051971,276.942200 
	C314.231720,285.712769 313.612091,287.129333 307.491608,289.299561 
	C302.277924,288.659210 299.969513,285.977966 299.941559,280.937958 
	C299.892639,272.115479 300.422791,270.860809 306.730194,268.843018 
z"/>
<path fill="#FFB434" opacity="1.000000" stroke="none" 
	d="
M306.676727,165.032852 
	C311.659912,165.990387 314.073853,168.608948 314.072693,173.626083 
	C314.070740,182.196167 313.582520,183.426804 307.362122,185.920990 
	C302.329041,185.020065 300.038666,182.217102 299.957367,177.327682 
	C299.819824,169.055374 300.476257,167.593216 306.676727,165.032852 
z"/>
<path fill="#FFB434" opacity="1.000000" stroke="none" 
	d="
M306.708893,337.906860 
	C312.054901,338.622742 314.041260,341.631348 314.056427,346.537170 
	C314.082458,354.959503 313.451233,356.363861 307.473511,358.375916 
	C302.443878,357.896973 300.138245,355.332062 299.970337,350.574097 
	C299.665924,341.947968 300.477631,340.177887 306.708893,337.906860 
z"/>
<path fill="#FFB434" opacity="1.000000" stroke="none" 
	d="
M306.708801,372.789551 
	C311.257324,372.907074 313.498016,375.108917 313.980377,379.175842 
	C315.011932,387.873322 313.790222,390.590088 307.435974,393.065002 
	C300.894745,391.401306 299.941803,389.786407 299.973846,381.675873 
	C299.991699,377.160767 300.863892,373.383575 306.708801,372.789551 
z"/>
<path fill="#FFB434" opacity="1.000000" stroke="none" 
	d="
M306.707275,406.918304 
	C311.993744,407.705261 314.055237,410.658051 314.062408,415.595886 
	C314.074707,424.046539 313.472473,425.412933 307.451111,427.429138 
	C302.439850,426.899536 300.125763,424.351501 299.966553,419.590027 
	C299.678619,410.979675 300.466003,409.246948 306.707275,406.918304 
z"/>
<path fill="#FFB434" opacity="1.000000" stroke="none" 
	d="
M306.709656,303.767822 
	C311.267487,303.858429 313.501526,306.046600 313.980957,310.121674 
	C315.003082,318.809601 313.832367,321.402496 307.407532,324.008789 
	C300.493286,321.875824 299.697540,320.426788 299.987427,311.615997 
	C300.127014,307.373993 301.498657,304.211548 306.709656,303.767822 
z"/>
<path fill="#FFDB41" opacity="1.000000" stroke="none" 
	d="
M170.641815,112.848686 
	C171.027832,112.726349 171.481430,112.839500 171.699921,112.920578 
	C167.711334,122.443230 170.349991,130.161240 178.016693,136.915283 
	C176.010086,137.314819 173.859192,137.563446 171.708084,137.565460 
	C140.227844,137.594986 108.747589,137.591568 76.811035,137.391449 
	C76.299522,136.872025 76.234406,136.559174 76.159378,136.248383 
	C100.129761,130.334946 124.101288,124.426132 148.069839,118.505280 
	C155.469345,116.677406 162.860718,114.816696 170.641815,112.848686 
z"/>
<path fill="#FF4355" opacity="1.000000" stroke="none" 
	d="
M75.801704,136.305878 
	C76.234406,136.559174 76.299522,136.872025 76.367706,137.425781 
	C74.829597,137.639114 73.278526,137.613571 71.439926,137.341614 
	C72.582939,136.851257 74.013489,136.607300 75.801704,136.305878 
z"/>
<path fill="#FF7186" opacity="1.000000" stroke="none" 
	d="
M307.450195,161.925812 
	C306.985229,158.642197 306.987122,155.397766 307.355286,151.631714 
	C312.163971,150.343964 314.085571,147.587875 314.036163,143.208420 
	C314.015991,141.417511 314.132935,139.625061 314.187500,137.833313 
	C340.148926,137.833847 366.110321,137.834381 392.541504,137.848541 
	C392.657135,138.597412 392.362854,139.369217 391.939728,140.062347 
	C386.546021,148.897766 386.861115,153.095932 393.714905,161.568665 
	C365.216400,161.892044 336.566742,161.928513 307.450195,161.925812 
z"/>
<path fill="#FFB435" opacity="1.000000" stroke="none" 
	d="
M367.396698,117.385178 
	C357.643616,119.838013 348.292969,122.201866 338.923828,124.489983 
	C333.066132,125.920555 329.112640,124.066536 328.184296,119.587502 
	C327.322784,115.430977 329.972870,112.278954 335.636993,110.847313 
	C349.663330,107.302078 363.697601,103.788170 377.729584,100.265373 
	C378.213318,100.143936 378.706421,100.059105 379.196167,99.962440 
	C384.175659,98.979568 387.653168,100.708748 388.752350,104.713043 
	C389.862976,108.759079 387.377838,112.347916 382.325470,113.694191 
	C377.505890,114.978447 372.637970,116.081482 367.396698,117.385178 
z"/>
<path fill="#FFA734" opacity="1.000000" stroke="none" 
	d="
M314.088440,137.455933 
	C314.132935,139.625061 314.015991,141.417511 314.036163,143.208420 
	C314.085571,147.587875 312.163971,150.343964 307.347687,151.192825 
	C300.522705,149.499725 300.017212,148.599945 299.922119,138.307220 
	C299.196259,135.169174 298.650818,132.435150 297.756958,129.820221 
	C296.192352,125.243027 297.540375,121.830849 301.766357,119.054459 
	C308.573761,119.216286 310.391205,120.752525 311.776489,127.055168 
	C312.510986,130.396988 313.251556,133.737457 314.088440,137.455933 
z"/>
<path fill="#FFB435" opacity="1.000000" stroke="none" 
	d="
M299.105774,105.585899 
	C292.684296,105.994675 290.754761,102.081184 289.626312,96.831177 
	C288.630768,92.199234 288.369568,88.220985 293.753601,85.679520 
	C300.752075,85.968811 301.712250,86.886986 303.514832,94.116165 
	C304.693359,98.842461 304.842712,103.117569 299.105774,105.585899 
z"/>
<path fill="#FFDD41" opacity="1.000000" stroke="none" 
	d="
M372.997406,262.000092 
	C361.839661,261.999542 351.181152,262.033447 340.523010,261.984039 
	C335.155853,261.959167 332.014954,259.327759 331.976898,255.025391 
	C331.937164,250.533356 334.810608,248.023438 340.367493,248.003448 
	C355.522156,247.948898 370.677246,247.946030 385.831848,248.006683 
	C391.306335,248.028595 394.166412,250.628647 394.069824,255.159744 
	C393.977692,259.480194 391.197174,261.882812 385.986725,261.981506 
	C381.824799,262.060364 377.660217,261.999146 372.997406,262.000092 
z"/>
<path fill="#FFDD41" opacity="1.000000" stroke="none" 
	d="
M392.587097,283.510559 
	C390.047546,284.571136 387.767120,285.926300 385.469543,285.956055 
	C370.515747,286.149750 355.558136,286.082306 340.601929,286.042023 
	C334.983124,286.026855 332.100433,283.693451 331.976837,279.286865 
	C331.851257,274.808533 335.080841,272.052399 340.725342,272.036530 
	C355.681519,271.994446 370.638214,271.966797 385.594086,272.046478 
	C393.026794,272.086090 395.638977,276.226929 392.587097,283.510559 
z"/>
<path fill="#FFB435" opacity="1.000000" stroke="none" 
	d="
M371.997375,389.860931 
	C361.504608,389.860443 351.511169,389.877380 341.517914,389.840912 
	C340.033936,389.835480 338.471680,389.828369 337.082855,389.388611 
	C333.471497,388.245117 331.511444,385.703064 332.046875,381.830505 
	C332.617035,377.707062 335.334290,375.834930 339.362762,375.828857 
	C355.185486,375.804962 371.008331,375.794342 386.830994,375.835114 
	C391.123169,375.846191 393.794708,377.930328 394.076721,382.383972 
	C394.334656,386.457642 391.524536,389.525696 386.983612,389.767975 
	C382.166718,390.024963 377.326691,389.848328 371.997375,389.860931 
z"/>
<path fill="#FFDD41" opacity="1.000000" stroke="none" 
	d="
M385.599121,237.975342 
	C370.825409,237.978088 356.505585,237.997467 342.185913,237.955688 
	C340.375671,237.950409 338.453125,237.953033 336.780487,237.377197 
	C333.456055,236.232727 331.598663,233.770615 332.033752,230.094528 
	C332.462189,226.474823 334.639069,224.099075 338.234375,224.066162 
	C354.716675,223.915237 371.202179,223.895096 387.684052,224.066360 
	C391.770142,224.108810 393.991241,226.812469 394.049194,230.946426 
	C394.106689,235.045334 391.459320,237.302170 385.599121,237.975342 
z"/>
<path fill="#FFB434" opacity="1.000000" stroke="none" 
	d="
M335.516266,212.819931 
	C332.200470,210.549484 330.734741,207.378525 332.544250,204.458847 
	C333.865601,202.326889 337.026337,200.121857 339.418854,200.063309 
	C355.188995,199.677338 370.973206,199.839066 386.752716,199.881866 
	C391.014984,199.893417 393.773376,201.965500 394.042389,206.378281 
	C394.313293,210.821945 391.616150,213.644440 387.558929,213.702087 
	C370.958527,213.937927 354.351807,213.738724 337.747589,213.659210 
	C337.123596,213.656235 336.501587,213.233826 335.516266,212.819931 
z"/>
<path fill="#FF9637" opacity="1.000000" stroke="none" 
	d="
M383.660431,351.390442 
	C385.591888,351.525879 387.105164,351.511841 388.548096,351.823517 
	C392.058868,352.581787 394.015289,354.812714 394.106049,358.446564 
	C394.197296,362.100677 392.285645,364.962402 388.846375,365.233948 
	C382.622131,365.725342 376.292969,365.729095 370.077972,365.163239 
	C366.650574,364.851166 364.796936,361.859039 365.023071,358.232849 
	C365.246246,354.654755 367.221039,352.219299 370.813812,351.852600 
	C374.918945,351.433624 379.075867,351.521515 383.660431,351.390442 
z"/>
</svg>